<svg xmlns="http://www.w3.org/2000/svg" width="500" height="500" viewBox="0 0 375 375">
  <defs>
    <clipPath id="roundedCorners">
      <rect width="375" height="375" rx="20" ry="20"/>
    </clipPath>
  </defs>
  
  <g clip-path="url(#roundedCorners)">
    <rect x="-37.5" width="450" fill="#ffffff" y="-37.499999" height="449.999989" fill-opacity="1"/>
    <path fill="#27ac52" d="M 138.308594 101.363281 C 122.582031 109.230469 111.464844 120.691406 112.277344 135.035156 L 112.277344 177.289062 C 113.328125 178.949219 114.617188 180.339844 115.769531 181.390625 C 121.734375 186.648438 130.105469 187.96875 138.308594 187.699219 Z M 138.308594 101.363281 " fill-opacity="1" fill-rule="nonzero"/>
    <path fill="#27ac52" d="M 169.867188 91.257812 C 160.953125 92.75 151.9375 95.363281 143.835938 98.785156 L 143.835938 187.289062 C 146.988281 186.953125 150.140625 186.339844 152.988281 185.800781 C 158.75 184.511719 164.34375 182.40625 169.867188 179.933594 Z M 169.867188 91.257812 " fill-opacity="1" fill-rule="nonzero"/>
    <path fill="#217a46" d="M 201.425781 81.289062 C 193.5625 85.664062 184.75 89.15625 175.394531 90.445312 L 175.394531 177.015625 C 182.308594 173.355469 188.78125 169.148438 194.714844 164.605469 C 196.917969 162.945312 199.1875 161.113281 201.390625 159.179688 L 201.390625 81.289062 Z M 201.425781 81.289062 " fill-opacity="1" fill-rule="nonzero"/>
    <path fill="#217a46" d="M 233.085938 125.269531 C 233.085938 102.179688 233.085938 79.019531 233.085938 55.824219 C 233.085938 55.824219 222.507812 67.894531 206.949219 77.863281 L 206.949219 154.363281 C 214.714844 147.445312 221.96875 139.683594 228.273438 131.613281 C 229.660156 129.882812 231.324219 127.78125 233.085938 125.269531 Z M 233.085938 125.269531 " fill-opacity="1" fill-rule="nonzero"/>
    <path fill="#27ac52" d="M 104.480469 172.03125 C 104.480469 172.03125 108.957031 200.890625 154.105469 190.683594 C 199.121094 180.609375 244.304688 126.59375 248.78125 106.214844 L 236.441406 104.347656 L 265.558594 77.898438 L 273.898438 112.859375 L 263.492188 109.46875 C 230.882812 197.125 100.648438 247.074219 104.480469 172.03125 Z M 104.480469 172.03125 " fill-opacity="1" fill-rule="nonzero"/>
    <g fill="#01ab44" fill-opacity="1">
      <g transform="translate(66.465821, 277.453751)">
        <g>
          <path d="M 33.109375 0 L 26.515625 0 C 25.972656 0 25.640625 -0.289062 25.515625 -0.875 L 23.78125 -9.953125 L 12.703125 -9.953125 L 11.015625 -0.875 C 10.890625 -0.289062 10.554688 0 10.015625 0 L 3.359375 0 C 2.609375 0 2.335938 -0.351562 2.546875 -1.0625 L 12.875 -48.921875 C 13 -49.492188 13.351562 -49.78125 13.9375 -49.78125 L 22.59375 -49.78125 C 23.175781 -49.78125 23.53125 -49.492188 23.65625 -48.921875 L 33.984375 -1.0625 C 34.109375 -0.351562 33.816406 0 33.109375 0 Z M 22.21875 -17.171875 L 18.234375 -38.890625 L 14.25 -17.171875 Z M 22.21875 -17.171875 "/>
        </g>
      </g>
    </g>
    <g fill="#01ab44" fill-opacity="1">
      <g transform="translate(102.930563, 277.453751)">
        <g>
          <path d="M 27.9375 -42.5625 L 27.9375 -36.34375 C 27.9375 -35.632812 27.609375 -35.28125 26.953125 -35.28125 L 11.578125 -35.28125 L 11.578125 -25.703125 L 23.28125 -25.703125 C 23.9375 -25.703125 24.265625 -25.347656 24.265625 -24.640625 L 24.265625 -18.484375 C 24.265625 -17.773438 23.9375 -17.421875 23.28125 -17.421875 L 11.578125 -17.421875 L 11.578125 -8.21875 L 26.953125 -8.21875 C 27.609375 -8.21875 27.9375 -7.882812 27.9375 -7.21875 L 27.9375 -1 C 27.9375 -0.332031 27.609375 0 26.953125 0 L 4.046875 0 C 3.421875 0 3.109375 -0.332031 3.109375 -1 L 3.109375 -42.5625 C 3.109375 -43.226562 3.421875 -43.5625 4.046875 -43.5625 L 26.953125 -43.5625 C 27.609375 -43.5625 27.9375 -43.226562 27.9375 -42.5625 Z M 27.9375 -42.5625 "/>
        </g>
      </g>
    </g>
    <g fill="#01ab44" fill-opacity="1">
      <g transform="translate(132.114769, 277.453751)">
        <g>
          <path d="M 12.078125 -43.5625 L 19.046875 -43.5625 C 21.992188 -43.5625 24.222656 -42.800781 25.734375 -41.28125 C 27.242188 -39.769531 28 -37.546875 28 -34.609375 L 28 -30.5 C 28 -29.832031 27.671875 -29.5 27.015625 -29.5 L 20.71875 -29.5 C 20.0625 -29.5 19.734375 -29.832031 19.734375 -30.5 L 19.734375 -33.109375 C 19.734375 -34.765625 18.898438 -35.59375 17.234375 -35.59375 L 13.8125 -35.59375 C 12.15625 -35.59375 11.328125 -34.765625 11.328125 -33.109375 L 11.328125 -27.8125 L 26.390625 -22.96875 C 27.460938 -22.59375 28 -21.820312 28 -20.65625 L 28 -8.96875 C 28 -6.0625 27.242188 -3.835938 25.734375 -2.296875 C 24.222656 -0.765625 21.992188 0 19.046875 0 L 12.078125 0 C 9.171875 0 6.945312 -0.765625 5.40625 -2.296875 C 3.875 -3.835938 3.109375 -6.0625 3.109375 -8.96875 L 3.109375 -13 C 3.109375 -13.664062 3.441406 -14 4.109375 -14 L 10.390625 -14 C 11.054688 -14 11.390625 -13.664062 11.390625 -13 L 11.390625 -10.390625 C 11.390625 -8.734375 12.21875 -7.90625 13.875 -7.90625 L 17.234375 -7.90625 C 18.898438 -7.90625 19.734375 -8.734375 19.734375 -10.390625 L 19.734375 -16.671875 L 4.796875 -21.53125 C 3.671875 -21.90625 3.109375 -22.671875 3.109375 -23.828125 L 3.109375 -34.609375 C 3.109375 -37.546875 3.875 -39.769531 5.40625 -41.28125 C 6.945312 -42.800781 9.171875 -43.5625 12.078125 -43.5625 Z M 12.078125 -43.5625 "/>
        </g>
      </g>
    </g>
    <g fill="#01ab44" fill-opacity="1">
      <g transform="translate(163.228037, 277.453751)">
        <g>
          <path d="M 28 -48.796875 L 28 -42.5625 C 28 -41.90625 27.671875 -41.578125 27.015625 -41.578125 L 11.578125 -41.578125 L 11.578125 -29.0625 L 23.28125 -29.0625 C 23.9375 -29.0625 24.265625 -28.726562 24.265625 -28.0625 L 24.265625 -21.84375 C 24.265625 -21.175781 23.9375 -20.84375 23.28125 -20.84375 L 11.578125 -20.84375 L 11.578125 -1 C 11.578125 -0.332031 11.242188 0 10.578125 0 L 4.109375 0 C 3.441406 0 3.109375 -0.332031 3.109375 -1 L 3.109375 -48.796875 C 3.109375 -49.453125 3.441406 -49.78125 4.109375 -49.78125 L 27.015625 -49.78125 C 27.671875 -49.78125 28 -49.453125 28 -48.796875 Z M 28 -48.796875 "/>
        </g>
      </g>
    </g>
    <g fill="#01ab44" fill-opacity="1">
      <g transform="translate(194.341305, 277.453751)">
        <g>
          <path d="M 4.109375 0 L 10.578125 0 C 11.242188 0 11.578125 -0.332031 11.578125 -1 L 11.578125 -42.5625 C 11.578125 -43.226562 11.242188 -43.5625 10.578125 -43.5625 L 4.109375 -43.5625 C 3.441406 -43.5625 3.109375 -43.226562 3.109375 -42.5625 L 3.109375 -1 C 3.109375 -0.332031 3.441406 0 4.109375 0 Z M 4.109375 0 "/>
        </g>
      </g>
    </g>
    <g fill="#01ab44" fill-opacity="1">
      <g transform="translate(209.026763, 277.453751)">
        <g>
          <path d="M 22.84375 -43.5625 L 28.6875 -43.5625 C 29.351562 -43.5625 29.6875 -43.226562 29.6875 -42.5625 L 29.6875 -1 C 29.6875 -0.332031 29.351562 0 28.6875 0 L 23.78125 0 C 23.28125 0 22.90625 -0.269531 22.65625 -0.8125 L 10.953125 -24.578125 L 10.953125 -1 C 10.953125 -0.332031 10.617188 0 9.953125 0 L 4.109375 0 C 3.441406 0 3.109375 -0.332031 3.109375 -1 L 3.109375 -42.5625 C 3.109375 -43.226562 3.441406 -43.5625 4.109375 -43.5625 L 9.03125 -43.5625 C 9.519531 -43.5625 9.890625 -43.289062 10.140625 -42.75 L 21.84375 -18.984375 L 21.84375 -42.5625 C 21.84375 -43.226562 22.175781 -43.5625 22.84375 -43.5625 Z M 22.84375 -43.5625 "/>
        </g>
      </g>
    </g>
  </g>
</svg> 