<svg xmlns="http://www.w3.org/2000/svg" xmlns:xlink="http://www.w3.org/1999/xlink" width="500" zoomAndPan="magnify" viewBox="0 0 375 374.999991" height="500" preserveAspectRatio="xMidYMid meet" version="1.0"><defs><clipPath id="adb4163f66"><path d="M 213 83.566406 L 249 83.566406 L 249 215 L 213 215 Z M 213 83.566406 " clip-rule="nonzero"/></clipPath><clipPath id="457d9e6309"><path d="M 76 112 L 302.074219 112 L 302.074219 287 L 76 287 Z M 76 112 " clip-rule="nonzero"/></clipPath></defs><path fill="#27ac52" d="M 122.113281 144.105469 C 101.144531 154.566406 86.320312 169.800781 87.402344 188.871094 L 87.402344 245.039062 C 88.804688 247.25 90.523438 249.097656 92.058594 250.496094 C 100.011719 257.484375 111.175781 259.242188 122.113281 258.878906 Z M 122.113281 144.105469 " fill-opacity="1" fill-rule="nonzero"/><path fill="#27ac52" d="M 164.191406 130.671875 C 152.304688 132.65625 140.28125 136.128906 129.480469 140.679688 L 129.480469 258.339844 C 133.683594 257.886719 137.886719 257.078125 141.683594 256.355469 C 149.367188 254.640625 156.824219 251.847656 164.191406 248.558594 Z M 164.191406 130.671875 " fill-opacity="1" fill-rule="nonzero"/><path fill="#217a46" d="M 206.265625 117.417969 C 195.78125 123.234375 184.03125 127.878906 171.554688 129.589844 L 171.554688 244.679688 C 180.777344 239.8125 189.410156 234.222656 197.316406 228.179688 C 200.253906 225.972656 203.28125 223.539062 206.21875 220.96875 L 206.21875 117.417969 Z M 206.265625 117.417969 " fill-opacity="1" fill-rule="nonzero"/><g clip-path="url(#adb4163f66)"><path fill="#217a46" d="M 248.476562 175.886719 C 248.476562 145.1875 248.476562 114.398438 248.476562 83.566406 C 248.476562 83.566406 234.378906 99.613281 213.632812 112.867188 L 213.632812 214.566406 C 223.980469 205.371094 233.652344 195.046875 242.058594 184.316406 C 243.914062 182.019531 246.128906 179.222656 248.476562 175.886719 Z M 248.476562 175.886719 " fill-opacity="1" fill-rule="nonzero"/></g><g clip-path="url(#457d9e6309)"><path fill="#27ac52" d="M 77.007812 238.054688 C 77.007812 238.054688 82.976562 276.414062 143.175781 262.847656 C 203.191406 249.457031 263.4375 177.644531 269.402344 150.554688 L 252.953125 148.074219 L 291.773438 112.910156 L 302.890625 159.390625 L 289.015625 154.878906 C 245.539062 271.410156 71.902344 337.816406 77.007812 238.054688 Z M 77.007812 238.054688 " fill-opacity="1" fill-rule="nonzero"/></g></svg>